<?xml version="1.0" encoding="UTF-8"?>
<svg xmlns="http://www.w3.org/2000/svg" viewBox="0 0 1024 1024">
  <defs>
    <linearGradient id="bg" x1="160" y1="120" x2="864" y2="904" gradientUnits="userSpaceOnUse">
      <stop offset="0" stop-color="#10b981"/>
      <stop offset="0.55" stop-color="#059669"/>
      <stop offset="1" stop-color="#065f46"/>
    </linearGradient>
    <linearGradient id="glow" x1="224" y1="220" x2="800" y2="804" gradientUnits="userSpaceOnUse">
      <stop offset="0" stop-color="#ecfdf5" stop-opacity="0.28"/>
      <stop offset="1" stop-color="#ecfdf5" stop-opacity="0"/>
    </linearGradient>
    <linearGradient id="betaRibbon" x1="176" y1="176" x2="848" y2="848" gradientUnits="userSpaceOnUse">
      <stop offset="0" stop-color="#fbbf24"/>
      <stop offset="0.46" stop-color="#f97316"/>
      <stop offset="1" stop-color="#e11d48"/>
    </linearGradient>
    <linearGradient id="betaRibbonShine" x1="360" y1="340" x2="660" y2="640" gradientUnits="userSpaceOnUse">
      <stop offset="0" stop-color="#fff7ed" stop-opacity="0.44"/>
      <stop offset="0.26" stop-color="#fff7ed" stop-opacity="0.12"/>
      <stop offset="1" stop-color="#fff7ed" stop-opacity="0"/>
    </linearGradient>
    <mask id="iconMask" maskUnits="userSpaceOnUse">
      <rect x="64" y="64" width="896" height="896" rx="200" fill="#ffffff"/>
    </mask>
  </defs>

  <rect x="64" y="64" width="896" height="896" rx="200" fill="url(#bg)"/>
  <circle cx="300" cy="290" r="170" fill="url(#glow)"/>
  <circle cx="760" cy="740" r="190" fill="url(#glow)" opacity="0.6"/>

  <g transform="translate(128 128) scale(0.75)">
    <g fill="#ffffff">
      <rect x="407.04" y="299.64" width="424.72" height="424.72" transform="translate(-180.62 587.94) rotate(-45)"/>
      <path d="M335.3,743.03l-231.03-231.03,231.03-231.02,231.02,231.02-231.02,231.03ZM179.04,512l156.27,156.27,156.27-156.27-156.27-156.27-156.27,156.27Z"/>
    </g>
  </g>

  <g>
    <path d="M590 64L346 64L64 346L64 590Z" fill="#000000" opacity="0.14"/>
    <path d="M608 64L364 64L64 364L64 608Z" fill="url(#betaRibbon)"/>
    <path d="M530 64L460 64L64 460L64 530Z" fill="url(#betaRibbonShine)" opacity="0.6"/>
    <text x="270" y="292" transform="rotate(-45 270 292)" text-anchor="middle" dominant-baseline="middle" font-family="SF Pro Display, Inter, Helvetica Neue, Arial, sans-serif" font-size="92" font-weight="800" letter-spacing="10" fill="#7c2d12" opacity="0.24">BETA</text>
    <text x="278" y="284" transform="rotate(-45 278 284)" text-anchor="middle" dominant-baseline="middle" font-family="SF Pro Display, Inter, Helvetica Neue, Arial, sans-serif" font-size="92" font-weight="800" letter-spacing="10" fill="#ffffff">BETA</text>
  </g>
</svg>
